# xmcd
#
# Track frame offsets:
# 150
# 18952
# 37912
# 56452
# 75282
# 91767
# 110875
# 126235
# 143847
# 164187
# 182800
# 201367
# 220045
# 237080
# 252832
# 270235
# 287297
# 305960
# 320555
# 334890
#
# Disc length: 4701 seconds
#
#
# Revision: 6
# Processed by: cddbd v1.5.2PL0 Copyright (c) Steve Scherf et al.
# Submitted via: FreeRIP 2.951 
#
DISCID=1c125b14
DTITLE=Urban Rhymes - Disc 1
DYEAR=1998
DGENRE=Hip-Hop
TTITLE0=Run DMC Vs Jason Nevins - It's Like That
TTITLE1=LL Cool J - Loungin'
TTITLE2=Warren G - I Shot The Sheriff
TTITLE3=Busta Rhymes - Woo Hah! Got You All In Check
TTITLE4=Coolio Feat. 40 Thevz - C U When U Get There
TTITLE5=Usher - Think Of You
TTITLE6=Mase - Feels So Good
TTITLE7=Jay Z - Wishing On A Star
TTITLE8=Another Level - Be Alone No More
TTITLE9=Salt 'N Pepa and En Vogue - Whatta Man
TTITLE10=Skee Lo - I Wish
TTITLE11=Chantay Savage - I Will Survive
TTITLE12=DJ Jazzy Jeff and The Fresh Prince - Summertime
TTITLE13=A Tribe Called Quest - Can I Kick It
TTITLE14=TLC - Waterfalls
TTITLE15=Apache Indian - Boom Shack-A-Lack
TTITLE16=Ini Kamoze - Here Comes The Hotstepper
TTITLE17=De La Soul - Magic Number
TTITLE18=Grandmaster Flash and The Furious Five - The Message
TTITLE19=The Sugar Hill Gang - Rapper's Delight
EXTD=
EXTT0=
EXTT1=
EXTT2=
EXTT3=
EXTT4=
EXTT5=
EXTT6=
EXTT7=
EXTT8=
EXTT9=
EXTT10=
EXTT11=
EXTT12=
EXTT13=
EXTT14=
EXTT15=
EXTT16=
EXTT17=
EXTT18=
EXTT19=
PLAYORDER=
